<svg height="496pt" viewBox="-32 0 496 496" width="496pt" xmlns="http://www.w3.org/2000/svg"><path d="m48 136v264h80c0-43.128906 31.046875-78.945312 72-86.480469v-1.519531l-40-56 24-32h64l24 32-40 56v1.519531c40.953125 7.535157 72 43.34375 72 86.480469h40v-40h40v-224zm0 0" fill="#f0bc5e"/><path d="m216 344c-30.929688 0-56 25.070312-56 56h112c0-30.929688-25.070312-56-56-56zm0 0" fill="#f0bc5e"/><path d="m216 336c-35.289062 0-64 28.710938-64 64s28.710938 64 64 64 64-28.710938 64-64-28.710938-64-64-64zm0 112c-26.472656 0-48-21.527344-48-48s21.527344-48 48-48 48 21.527344 48 48-21.527344 48-48 48zm0 0"/><path d="m392 40h-32v-16c0-13.230469-10.769531-24-24-24s-24 10.769531-24 24v16h-32v-16c0-13.230469-10.769531-24-24-24s-24 10.769531-24 24v16h-32v-16c0-13.230469-10.769531-24-24-24s-24 10.769531-24 24v16h-32v-16c0-13.230469-10.769531-24-24-24s-24 10.769531-24 24v16h-32c-22.054688 0-40 17.945312-40 40v368h132.992188c16.632812 28.648438 47.566406 48 83.007812 48s66.375-19.351562 83.007812-48h48.304688l84.6875-84.6875v-283.3125c0-22.054688-17.945312-40-40-40zm-64-16c0-4.40625 3.59375-8 8-8s8 3.59375 8 8v48c0 4.40625-3.59375 8-8 8s-8-3.59375-8-8zm-80 0c0-4.40625 3.59375-8 8-8s8 3.59375 8 8v48c0 4.40625-3.59375 8-8 8s-8-3.59375-8-8zm-80 0c0-4.40625 3.59375-8 8-8s8 3.59375 8 8v48c0 4.40625-3.59375 8-8 8s-8-3.59375-8-8zm-80 0c0-4.40625 3.59375-8 8-8s8 3.59375 8 8v48c0 4.40625-3.59375 8-8 8s-8-3.59375-8-8zm128 456c-44.113281 0-80-35.886719-80-80s35.886719-80 80-80 80 35.886719 80 80-35.886719 80-80 80zm5.390625-216-5.390625 18.878906-5.390625-18.878906zm5.050781 40.59375 11.589844-40.59375h18.425781l-29.097656 40.734375c-.3125-.039063-.617187-.109375-.917969-.140625zm8.871094-56.59375 11.824219-11.824219 8.863281 11.824219zm-19.3125-3.3125-12.6875-12.6875h25.375zm-31.136719-8.511719 11.824219 11.824219h-20.6875zm9.105469 27.824219 11.597656 40.59375c-.308594.03125-.605468.101562-.917968.140625l-29.105469-40.734375zm50.496094 44.3125 37.445312-52.425781-29.910156-39.886719h-72l-29.910156 39.878906 37.445312 52.425782c-39.078125 12.167968-67.535156 48.671874-67.535156 91.695312 0 11.230469 2.039062 21.976562 5.601562 32h-109.601562v-296h296v-16h-296v-40c0-13.230469 10.769531-24 24-24h32v16c0 13.230469 10.769531 24 24 24s24-10.769531 24-24v-16h32v16c0 13.230469 10.769531 24 24 24s24-10.769531 24-24v-16h32v16c0 13.230469 10.769531 24 24 24s24-10.769531 24-24v-16h32v16c0 13.230469 10.769531 24 24 24s24-10.769531 24-24v-16h32c13.230469 0 24 10.769531 24 24v40h-88v16h88v216h-80v80h-29.601562c3.5625-10.023438 5.601562-20.769531 5.601562-32 0-43.023438-28.457031-79.527344-67.535156-91.6875zm160.222656 59.6875-52.6875 52.6875v-52.6875zm0 0"/><path d="m80 152h40v16h-40zm0 0"/><path d="m80 184h40v16h-40zm0 0"/><path d="m136 152h16v16h-16zm0 0"/><path d="m136 184h16v16h-16zm0 0"/><path d="m336 288h16v16h-16zm0 0"/><path d="m336 320h16v16h-16zm0 0"/></svg>