<svg id="Layer_3" enable-background="new 0 0 64 64" height="512" viewBox="0 0 64 64" width="512" xmlns="http://www.w3.org/2000/svg"><g><path d="m33 62 4-11h20v11" fill="#f4b2b0"/><g fill="#b3404a"><path d="m7 57h25v2h-18v2h18v1c0 .552.448 1 1 1h24c.552 0 1-.448 1-1v-15c0-.552-.448-1-1-1h-7v-35h-2v35h-2.586l-2.707-2.707c-.187-.188-.442-.293-.707-.293h-9c-.552 0-1 .448-1 1v11h-24v-42h9c.552 0 1-.448 1-1v-9h26v40h2v-41c0-.552-.448-1-1-1h-28c-.276 0-.526.112-.707.293l-9.999 9.999c-.182.182-.294.432-.294.708v44c0 .552.448 1 1 1zm27.428 4 3.272-9h18.3v9zm7.158-16 2.707 2.707c.187.188.442.293.707.293h11v2h-19c-.42 0-.796.263-.94.658l-2.06 5.665v-11.323zm-32.172-34 6.586-6.586v6.586z"/><path d="m10 15h2v2h-2z"/><path d="m14 15h2v2h-2z"/><path d="m18 15h24v2h-24z"/><path d="m40 19h2v2h-2z"/><path d="m36 19h2v2h-2z"/><path d="m10 19h24v2h-24z"/><path d="m10 23h2v2h-2z"/><path d="m14 23h2v2h-2z"/><path d="m18 23h24v2h-24z"/><path d="m40 27h2v2h-2z"/><path d="m36 27h2v2h-2z"/><path d="m10 27h24v2h-24z"/><path d="m10 31h2v2h-2z"/><path d="m14 31h2v2h-2z"/><path d="m18 31h24v2h-24z"/><path d="m40 35h2v2h-2z"/><path d="m36 35h2v2h-2z"/><path d="m10 35h24v2h-24z"/></g></g></svg>