<svg id="Capa_1" enable-background="new 0 0 512 512" height="512" viewBox="0 0 512 512" width="512" xmlns="http://www.w3.org/2000/svg"><g><g><path d="m446.662 426.814c40.621-45.31 65.338-105.172 65.338-170.814 0-141.385-114.615-256-256-256s-256 114.615-256 256c0 65.642 24.717 125.504 65.338 170.814z" fill="#66e9ff"/></g><g><path d="m446.662 426.814c-9.708-28.375-20.614-54.825-29.662-62.814-22-19.425-117.305-35.119-117.305-35.119h-43.695-43.695s-95.305 15.694-117.305 35.119c-9.048 7.989-19.954 34.439-29.662 62.814 46.87 52.282 114.919 85.186 190.662 85.186s143.792-32.904 190.662-85.186z" fill="#e9efff"/></g><g><path d="m360.621 477c-96.1 0-179.817-52.962-223.596-131.281-18.118 5.322-34.435 11.579-42.025 18.281-9.048 7.989-19.954 34.439-29.662 62.814 46.87 52.282 114.919 85.186 190.662 85.186 48.159 0 93.205-13.308 131.68-36.433-8.893.937-17.918 1.433-27.059 1.433z" fill="#dae2fe"/></g><g><path d="m417.34 361.617c-7.255-7.914-61.86-24.53-61.86-24.53-6.668-14.42-18.283-11.747-18.283-11.747s2.824-3.106 3.505-10.596c.681-7.489-15.031-19.745-15.031-19.745l-36.032 14.298-16.342 19.583h-65.125c25.207 14.038 48.998 30.64 69.145 49.856 42.823 40.843 106.762 50.129 158.941 22.211l.75-.401c.001.001-4.689-22.588-19.668-38.929z" fill="#e80054"/></g><g><path d="m415.042 118.489c-6.127-29.106-52.595-88.117-159.042-88.117-33.813 0-66.103 15.994-88.59 43.88-21.061 26.118-32.659 61.266-32.659 98.97 0 36.747 10.684 76.002 29.311 107.701 4.529 7.707 9.393 14.742 14.544 21.092-3.859 4.009-7.65 8.97-7.308 12.73.681 7.49 3.505 10.596 3.505 10.596s-11.615-2.673-18.283 11.747c0 0-54.605 16.615-61.86 24.53-14.979 16.341-19.668 38.915-19.668 38.915l.757.405c52.027 27.845 115.973 18.916 158.608-21.881 18.159-17.376 39.299-32.621 61.779-45.772 19.712-10.16 37.434-27.91 51.802-52.361 18.627-31.699 29.311-70.955 29.311-107.701 0-2.607-.061-5.2-.171-7.78 19.145-11.926 41.559-29.878 37.964-46.954z" fill="#ff4155"/></g><g><path d="m159.751 173.222c0-32.014 9.632-61.589 27.12-83.277 17.979-22.295 42.528-34.573 69.129-34.573s51.15 12.278 69.129 34.573c17.488 21.688 27.12 51.263 27.12 83.277z" fill="#ffdd40"/></g><g><path d="m337.171 168.601c0-62.849-117.532-62.197-96.512-111.83-20.612 3.795-39.326 15.24-53.787 33.173-17.488 21.688-27.12 51.263-27.12 83.277h177.42c-.001-1.697-.001-3.248-.001-4.62z" fill="#ffc839"/></g><g><path d="m159.751 173.222c0 31.947 9.669 67.475 25.864 95.036 7.942 13.515 16.954 24.472 26.69 32.652h87.39c9.736-8.18 18.748-19.136 26.69-32.652 16.195-27.561 25.864-63.088 25.864-95.036z" fill="#cc0053"/></g><g><g><path d="m377.078 165.442c8.505-5.298 17.651-11.787 24.88-18.858-7.464-26.306-22.369-44.658-35.115-56.293-4.161-3.798-10.402 1.077-7.778 6.062 10.727 20.377 16.945 44.06 18.013 69.094 0-.002 0-.004 0-.005z" fill="#e80054"/></g><g><path d="m377.205 169.348c-.001-.049-.003-.097-.004-.146.001.049.003.097.004.146z" fill="#fff"/><path d="m376.705 169.357.5-.009-.5.009.5-.009-.502-.058.498-.088.5-.01.004.146z"/></g></g><g><path d="m325.075 183.668s8.897-21.662 24.756-16.633-.383 51.97-31.332 54.928z" fill="#f9ba8f"/></g><g><path d="m186.925 183.668s-8.897-21.662-24.756-16.633.383 51.97 31.332 54.928z" fill="#fcad6d"/></g><g><path d="m212.305 300.909c13.474 11.321 28.337 17.312 43.695 17.312s30.221-5.991 43.695-17.312v-84.097h-87.39z" fill="#f9ba8f"/></g><g><path d="m212.305 300.909c13.111 11.015 27.538 16.973 42.456 17.286 20.02-10.62 30.791-25.333 30.791-25.333l14.144-76.05h-87.39v84.097z" fill="#fcad6d"/></g><g><path d="m182.81 127.19c-5.164 13.614-8.06 29.154-8.06 46.032 0 59.83 36.377 129.999 81.25 129.999s81.25-70.169 81.25-129.999c0-1.552-.03-3.091-.079-4.62-87.315-.002-111.831-85.602-154.361-41.412z" fill="#f9d0b4"/></g><g><path d="m399.18 436.247-11.516 39.331c7.351-4.417 14.467-9.186 21.314-14.296v-23.629c0-5.78-8.174-6.953-9.798-1.406z" fill="#dae2fe"/></g><g><path d="m103.022 437.651v23.629c6.847 5.111 13.963 9.879 21.314 14.296l-11.516-39.331c-1.624-5.545-9.798-4.372-9.798 1.406z" fill="#bec8f7"/></g><g><path d="m256 353.551s-34.468 53.693-23.859 119.125c1.325 8.174-7.24 14.43-14.527 10.498-.171-.092-.342-.185-.513-.28-13.427-7.389-21.52-21.699-21.306-37.023.379-27.187 8.623-75.764 60.205-92.32z" fill="#ffb332"/></g><g><path d="m256 353.551s34.467 53.691 23.859 119.123c-1.325 8.175 7.241 14.431 14.529 10.499.17-.092.34-.185.511-.278 13.427-7.389 21.52-21.699 21.306-37.023-.379-27.188-8.623-75.765-60.205-92.321z" fill="#ffb332"/></g><g><path d="m256 354.408s21.496 27.858 46.139 30.715 26.698-23.036 6.072-28.393-52.211-2.322-52.211-2.322z" fill="#ffc839"/></g><g><path d="m256 354.408s-21.496 27.858-46.139 30.715-26.698-23.036-6.072-28.393 52.211-2.322 52.211-2.322z" fill="#ffc839"/></g><g><path d="m256 351.544s68.656 22.894 81.496 2.289-33.992-43.995-81.496-2.289z" fill="#ffdd40"/></g><g><path d="m256 351.544s-68.656 22.894-81.496 2.289c-12.841-20.604 33.992-43.995 81.496-2.289z" fill="#ffdd40"/></g><g><circle cx="256" cy="360.38" fill="#ffdd40" r="20"/></g><g><path d="m202.691 173.222c0-21.793 4.829-41.353 13.134-57.417-10.77-3.142-21.197-.894-33.015 11.385-5.164 13.614-8.06 29.154-8.06 46.032 0 59.83 36.377 129.999 81.25 129.999 4.764 0 9.431-.798 13.97-2.284-38.215-12.506-67.279-74.237-67.279-127.715z" fill="#f9ba8f"/></g></g></svg>