<?xml version="1.0" encoding="iso-8859-1"?>
<!-- Generator: Adobe Illustrator 21.0.0, SVG Export Plug-In . SVG Version: 6.00 Build 0)  -->
<svg xmlns="http://www.w3.org/2000/svg" xmlns:xlink="http://www.w3.org/1999/xlink" version="1.1" id="Capa_1" x="0px" y="0px" viewBox="0 0 512.16 512.16" style="enable-background:new 0 0 512.16 512.16;" xml:space="preserve" width="512" height="512">
<g>
	<g>
		<path d="M256.24,0.08C96.99,0.08,0,120.47,0,240.4c0,70.88,37.58,127.19,91.88,172.76v83.92c0,5.37,2.87,10.33,7.53,13.01    c2.31,1.33,4.89,1.99,7.47,1.99c2.61,0,5.22-0.68,7.56-2.04l76.6-44.68c22.49,4.87,44.66,7.34,66,7.34    c135.33,0,255.12-100.56,255.12-235.82C512.16,97.17,384.73,0.08,256.24,0.08z M257.04,442.7c-20.89,0-42.77-2.65-65.03-7.88    c-3.74-0.88-7.67-0.29-10.99,1.65l-59.14,34.5v-64.89c0-4.53-2.05-8.81-5.57-11.66C58.23,347.44,30,297.06,30,240.4    c0-103.38,84.63-210.32,226.24-210.32c109.11,0,225.92,83.1,225.92,206.8C482.16,350.37,381.17,442.7,257.04,442.7z"/>
	</g>
	<g>
		<path d="M418.81,171.77c-4.49-5.86-12.58-7.59-19.07-4.06c-34.4,18.7-68.89,35.36-102.15,53.07l-57.97-53.21    c-6.02-5.53-15.36-5.22-21,0.7c-40.57,42.55-81.95,87.75-122.82,130.6c-5.02,5.27-5.53,13.38-1.22,19.24    c4.31,5.87,12.21,7.79,18.73,4.56c3.11-1.54,73.43-38.21,103.6-55.45c18.44,18.58,38.13,35.55,57.33,53.13    c2.88,2.63,6.51,3.93,10.13,3.93c3.96,0,7.91-1.56,10.85-4.64l122.53-128.39C422.85,185.9,423.3,177.64,418.81,171.77z     M283.62,288.34c-18.6-16.77-36.94-32.97-53.63-50.76c-2.95-3.14-6.94-4.73-10.94-4.73c-4.21,0-8.18,1.75-11.03,4.83    c-5.96,3.58-16.39,9.37-28.48,15.94c16.64-17.82,33.76-36.15,50.65-53.98l54.96,50.46c4.72,4.33,11.68,5.19,17.31,2.13    c10.24-5.57,20.69-11.04,31.45-16.59L283.62,288.34z"/>
	</g>
</g>















</svg>
