<svg height="512" viewBox="0 0 64 64" width="512" xmlns="http://www.w3.org/2000/svg"><g id="phone_auricular_social_media_interaction_communication_web" data-name="phone auricular social media interaction communication web"><path d="m57.323 34.631-2.83-2.83a15.411 15.411 0 0 0 -21.793-21.794l-2.829-2.83a19.413 19.413 0 0 1 27.452 27.454z"/><path d="m51.634 28.965-2.828-2.828a7.384 7.384 0 0 0 -10.443-10.437l-2.83-2.828a11.384 11.384 0 0 1 16.1 16.1z"/><path d="m54.432 43.779a9.215 9.215 0 0 1 -.93 11.948c-7.844 7.844-20.449 5.279-27.9-2.176l-15.656-15.651c-7.446-7.446-10.032-20.046-2.176-27.9a9.218 9.218 0 0 1 11.949-.93 8.193 8.193 0 0 1 3.3 7.575c-.434 3.584-3.082 4.645-4.175 5.738a8.688 8.688 0 0 0 0 12.273c9.249 8.632 10.247 11.809 14.937 12.458 5.889.813 8.483-4.012 9.228-4.758 3.164-3.168 8.699-2.288 11.423 1.423z" fill="#4370ff"/><path d="m56.058 42.6c-3.408-4.639-10.374-5.74-14.458-1.653a7.99 7.99 0 0 0 -.611.741c-1.061 1.394-3.042 4-6.932 3.452-3.822-.529-4.8-3.5-13.805-11.9a6.692 6.692 0 0 1 0-9.451c.864-.861 4.2-2.425 4.75-6.923a10.229 10.229 0 0 0 -4.1-9.427 11.284 11.284 0 0 0 -14.561 1.129c-8.824 8.825-5.741 22.832 2.177 30.752l6.664 6.664 2.83-2.831-6.664-6.663c-6.805-6.807-9.115-18.152-2.177-25.09a7.257 7.257 0 0 1 9.357-.73 6.215 6.215 0 0 1 2.5 5.724c-.323 2.666-2.292 3.255-3.607 4.569a10.712 10.712 0 0 0 .05 15.159c9.243 8.627 10.512 12.22 16.038 12.986 6.209.853 9.448-3.394 10.666-5 .113-.149.2-.273.255-.333 2.32-2.32 6.432-1.494 8.4 1.194a7.255 7.255 0 0 1 -.732 9.357c-7.076 7.075-18.532 4.379-25.09-2.177l-6.167-6.167-2.83 2.83 6.168 6.167c8.238 8.24 22.167 10.762 30.749 2.177a11.285 11.285 0 0 0 1.13-14.556z"/></g></svg>