<svg id="Layer_3" enable-background="new 0 0 64 64" height="512" viewBox="0 0 64 64" width="512" xmlns="http://www.w3.org/2000/svg"><g><g fill="#f4b2b0"><path d="m48 17h4v10h-4z"/><path d="m12 17h4v10h-4z"/><circle cx="32" cy="22" r="6"/><path d="m10 47v4c0 1.105.895 2 2 2h8c1.105 0 2-.895 2-2v-4z"/></g><g fill="#b3404a"><path d="m58 1h-52c-2.757 0-5 2.243-5 5v36c0 2.757 2.243 5 5 5h3v4c0 1.654 1.346 3 3 3h8c1.654 0 3-1.346 3-3v-4h2v8.08c-3.386.488-6 3.401-6 6.92 0 .553.447 1 1 1h24c.553 0 1-.447 1-1 0-3.519-2.614-6.432-6-6.92v-8.08h19c2.757 0 5-2.243 5-5v-36c0-2.757-2.243-5-5-5zm-45 17h2v8h-2zm0 10h3c.553 0 1-.447 1-1v-10c0-.553-.447-1-1-1h-3v-5h18v4.08c-3.386.488-6 3.401-6 6.92s2.614 6.432 6 6.92v4.08h-8c0-1.654-1.346-3-3-3h-7zm38-2h-2v-8h2zm0-10h-3c-.553 0-1 .447-1 1v10c0 .553.447 1 1 1h3v5h-18v-4.08c3.386-.488 6-3.401 6-6.92s-2.614-6.432-6-6.92v-4.08h18zm-18 1.101c2.279.465 4 2.484 4 4.899s-1.721 4.434-4 4.899zm-2 9.798c-2.279-.465-4-2.484-4-4.899s1.721-4.434 4-4.899zm-19 5.101h8c.552 0 1 .448 1 1v13h-10v-13c0-.552.448-1 1-1zm11 3h29c.553 0 1-.447 1-1v-24c0-.553-.447-1-1-1h-40c-.553 0-1 .447-1 1v20.184c-1.161.414-2 1.514-2 2.816v4h-2v-30h50v30h-34zm-3 17h-8c-.552 0-1-.448-1-1v-3h10v3c0 .552-.448 1-1 1zm22.899 9h-21.798c.465-2.279 2.484-4 4.899-4h12c2.415 0 4.435 1.721 4.899 4zm-5.899-6h-10v-8h10zm24-13c0 1.654-1.346 3-3 3h-35v-6h35c.553 0 1-.447 1-1v-32c0-.553-.447-1-1-1h-52c-.553 0-1 .447-1 1v32c0 .553.447 1 1 1h3v6h-3c-1.654 0-3-1.346-3-3v-36c0-1.654 1.346-3 3-3h52c1.654 0 3 1.346 3 3z"/><path d="m57 41h2v2h-2z"/><path d="m53 41h2v2h-2z"/><path d="m13 34h2v2h-2z"/><path d="m17 34h2v2h-2z"/><path d="m13 38h2v2h-2z"/><path d="m17 38h2v2h-2z"/><path d="m13 42h2v2h-2z"/><path d="m17 42h2v2h-2z"/></g></g></svg>