<?xml version="1.0" encoding="iso-8859-1"?>
<!-- Generator: Adobe Illustrator 19.0.0, SVG Export Plug-In . SVG Version: 6.00 Build 0)  -->
<svg version="1.1" id="Capa_1" xmlns="http://www.w3.org/2000/svg" xmlns:xlink="http://www.w3.org/1999/xlink" x="0px" y="0px"
	 viewBox="0 0 444.082 444.082" style="enable-background:new 0 0 444.082 444.082;" xml:space="preserve">
<path style="fill:#4DCFE0;" d="M428.408,341.682c-2.612,0-4.702-0.522-7.314-1.567L307.2,282.645l14.106-28.212l91.429,45.976
	V143.673l-90.906,45.975l-14.106-28.212l113.894-57.469c4.702-2.612,10.449-2.09,15.151,0.522c4.702,2.612,7.314,7.837,7.314,13.584
	v207.935c0,5.224-2.612,10.449-7.314,13.584C434.155,341.159,431.02,341.682,428.408,341.682z"/>
<path style="fill:#1185E0;" d="M314.514,363.624H15.673C6.792,363.624,0,356.833,0,347.951V96.131
	c0-8.882,6.792-15.673,15.673-15.673h298.841c8.882,0,15.673,6.792,15.673,15.673v251.82
	C330.188,356.833,323.396,363.624,314.514,363.624z M31.347,332.278h267.494V111.804H31.347V332.278z"/>
<g>
</g>
<g>
</g>
<g>
</g>
<g>
</g>
<g>
</g>
<g>
</g>
<g>
</g>
<g>
</g>
<g>
</g>
<g>
</g>
<g>
</g>
<g>
</g>
<g>
</g>
<g>
</g>
<g>
</g>
</svg>
