<svg id="Layer_1" enable-background="new 0 0 512.002 512.002" height="512" viewBox="0 0 512.002 512.002" width="512" xmlns="http://www.w3.org/2000/svg"><g><g><path d="m441.734 114.2h-3.806l-1.716-1.644h-10.125v33.759l2.954 1.55h12.692c8.83 0 15.988-7.536 15.988-16.833.001-9.296-7.157-16.832-15.987-16.832z" fill="#ffcebe"/><path d="m319.016 114.202c-8.817.016-15.961 7.544-15.961 16.831 0 9.296 7.158 16.833 15.988 16.833h12.693l2.064-3.809v-31.5h-11.838z" fill="#ffcebe"/><path d="m442.776 114.256c-.346-.024-.69-.055-1.042-.055h-3.806l-1.716-1.644h-10.125v33.759l2.954 1.55h12.692c.352 0 .696-.032 1.042-.055v-33.555z" fill="#ffb1a0"/><path d="m319.744 131.033c0-8.606 6.139-15.691 14.056-16.697v-1.779h-11.838l-2.946 1.646c-8.817.016-15.961 7.544-15.961 16.831 0 9.296 7.158 16.833 15.988 16.833h12.693l.261-.481c-7.025-1.776-12.253-8.414-12.253-16.353z" fill="#ffb1a0"/><path d="m478.339 237.254c-2.261-.876-32.303-12.51-51.717-20.029l-3.993 1.914h-84.917l-3.602-2.066-51.671 20.181c-11.244 4.627-26.301 19.188-26.301 40.794v48.675h40.522v47.253h167.457v-47.253h40.522c0-23.588 0-44.97 0-48.675 0-18.607-11.913-34.873-26.3-40.794z" fill="#ff7f87"/><path d="m290.16 260.389c0-15.234 8.114-25.771 16.617-32.641l-24.338 9.506c-11.244 4.627-26.301 19.188-26.301 40.794v48.675h34.022c0-27.47 0-53.827 0-66.334z" fill="#ff636e"/><path d="m464.117 325.723v48.253h31.758c4.841 0 8.764-3.924 8.764-8.764 0-4.139 0-8.55 0-39.488h-40.522z" fill="#ffcebe"/><path d="m410.386 210.938c-1.864-.72-3.102-2.514-3.108-4.522l-.013-15.984-3.304-3.375h-47.5l-2.992 3.303v16.026c0 2.003-.963 3.183-2.072 3.936l-17.288 6.752c6.052 18.574 23.313 33.099 46.973 33.099 21.202 0 39.223-13.836 45.54-32.948-8.686-3.364-15.247-5.905-16.236-6.287z" fill="#ffcebe"/><path d="m380.366 187.056h-23.904l-2.992 3.303v16.026c0 2.003-.963 3.183-2.072 3.936l-17.288 6.752c5.991 18.385 22.967 32.794 46.256 33.086z" fill="#ffb1a0"/><path d="m304.16 373.976v-91.276c0-4.142-3.358-7.5-7.5-7.5s-7.5 3.358-7.5 7.5v91.276z" fill="#ff636e"/><path d="m426.622 110.056-3.994-2.667-3-13h-5.833l-24.333 17.667h-21.553l-1.815 2.93v35.184c0 19.569 11.71 37.834 30.762 45.392 18.717-6.539 32.185-24.362 32.185-45.28v-34.774z" fill="#ffdecf"/><g><path d="m366.812 150.282v-34.394l2.374-3.832h-35.076l-2.374 3.832v34.394c0 25.065 19.639 47.958 49.347 47.958 5.983 0 11.709-1.111 16.995-3.121-19.332-7.085-31.266-25.3-31.266-44.837z" fill="#ffcebe"/></g><path d="m425.925 52.759c-4.582.352-8.787-2.529-9.669-7.039-1.485-7.596-5.246-15.134-19.937-15.134h-50.969c-18.706 0-33.87 15.164-33.87 33.87v37.172c0 7.876 6.385 14.261 14.261 14.261h57.848c12.939 0 24.176-7.259 29.878-17.924.442-.827 1.697-.504 1.697.434 0 9.619 7.87 17.49 17.49 17.49 5.042 0 9.168-4.126 9.168-9.168v-38.791c.001-9.138-7.972-15.78-15.897-15.171z" fill="#365e7d"/><g><path d="m340.231 101.628v-37.172c0-18.706 15.164-33.87 33.87-33.87h-28.75c-18.706 0-33.87 15.164-33.87 33.87v37.172c0 7.876 6.385 14.261 14.261 14.261h28.75c-7.876 0-14.261-6.385-14.261-14.261z" fill="#2b4d66"/></g><path d="m193.233 114.2h-3.806l-1.716-1.644h-10.125v33.759l2.954 1.55h12.692c8.83 0 15.988-7.536 15.988-16.833.001-9.296-7.157-16.832-15.987-16.832z" fill="#ffcebe"/><path d="m70.516 114.202c-8.817.016-15.961 7.544-15.961 16.831 0 9.296 7.158 16.833 15.988 16.833h12.693l2.064-3.809v-31.5h-11.839z" fill="#ffcebe"/><path d="m194.275 114.256c-.346-.024-.69-.055-1.042-.055h-3.806l-1.716-1.644h-10.125v33.759l2.954 1.55h12.692c.352 0 .696-.032 1.042-.055v-33.555z" fill="#ffb1a0"/><path d="m71.243 131.033c0-8.606 6.139-15.691 14.056-16.697v-1.779h-11.838l-2.946 1.646c-8.817.016-15.961 7.544-15.961 16.831 0 9.296 7.158 16.833 15.988 16.833h12.693l.261-.481c-7.025-1.776-12.253-8.414-12.253-16.353z" fill="#ffb1a0"/><path d="m229.839 237.254c-2.261-.876-32.303-12.51-51.717-20.029l-3.993 1.914h-84.918l-3.602-2.066-51.671 20.181c-11.244 4.627-26.301 19.188-26.301 40.794v48.675h40.522v47.253h167.457v-47.253h40.522c0-23.588 0-44.97 0-48.675 0-18.607-11.913-34.873-26.299-40.794z" fill="#b3e59f"/><path d="m41.659 260.389c0-15.234 8.114-25.771 16.617-32.641l-24.338 9.506c-11.244 4.627-26.301 19.188-26.301 40.794v48.675h34.022c0-27.47 0-53.827 0-66.334z" fill="#95d6a4"/><path d="m48.159 325.723h-40.522v39.488c0 4.84 3.924 8.764 8.764 8.764h31.758z" fill="#ffb1a0"/><path d="m161.886 210.938c-1.864-.72-3.102-2.514-3.108-4.522l-.013-15.984-3.304-3.375h-47.5l-2.992 3.303v16.026c0 2.003-.963 3.183-2.072 3.936l-17.288 6.752c6.052 18.574 23.313 33.099 46.973 33.099 21.202 0 39.223-13.836 45.54-32.948-8.687-3.364-15.247-5.905-16.236-6.287z" fill="#ffcebe"/><path d="m131.865 187.056h-23.904l-2.992 3.303v16.026c0 2.003-.963 3.183-2.072 3.936l-17.288 6.752c5.991 18.385 22.967 32.794 46.256 33.086z" fill="#ffb1a0"/><path d="m178.121 110.056-3.994-2.667-3-13h-5.833l-24.333 17.667h-21.553l-1.815 2.93v35.184c0 19.569 11.71 37.834 30.762 45.392 18.717-6.539 32.185-24.362 32.185-45.28v-34.774z" fill="#ffdecf"/><g><path d="m118.311 150.282v-34.394l2.374-3.832h-35.076l-2.374 3.832v34.394c0 25.065 19.639 47.958 49.347 47.958 5.983 0 11.709-1.111 16.995-3.121-19.332-7.085-31.266-25.3-31.266-44.837z" fill="#ffcebe"/></g><path d="m177.425 52.759c-4.582.352-8.787-2.529-9.669-7.039-1.486-7.596-5.246-15.134-19.937-15.134h-50.968c-18.706 0-33.87 15.164-33.87 33.87v37.172c0 7.876 6.385 14.261 14.261 14.261h57.848c12.939 0 24.176-7.259 29.878-17.924.442-.827 1.697-.504 1.697.434 0 9.619 7.87 17.49 17.49 17.49 5.042 0 9.168-4.126 9.168-9.168v-38.791c-.001-9.138-7.974-15.78-15.898-15.171z" fill="#365e7d"/><g><path d="m91.731 101.628v-37.172c0-18.706 15.164-33.87 33.87-33.87h-28.75c-18.706 0-33.87 15.164-33.87 33.87v37.172c0 7.876 6.385 14.261 14.261 14.261h28.75c-7.876 0-14.261-6.385-14.261-14.261z" fill="#2b4d66"/></g><path d="m317.483 222.867h-3.806l-1.716-1.644h-10.125v33.759l2.954 1.55h12.692c8.83 0 15.988-7.536 15.988-16.833.002-9.296-7.157-16.832-15.987-16.832z" fill="#ffcebe"/><path d="m194.766 222.869c-8.817.016-15.961 7.544-15.961 16.831 0 9.296 7.158 16.833 15.988 16.833h12.693l2.064-3.809v-31.5h-11.838z" fill="#ffcebe"/><path d="m318.525 222.923c-.346-.024-.69-.055-1.042-.055h-3.806l-1.716-1.644h-10.125v33.759l2.954 1.55h12.692c.352 0 .696-.032 1.042-.055v-33.555z" fill="#ffb1a0"/><path d="m195.494 239.699c0-8.606 6.139-15.691 14.056-16.697v-1.779h-11.838l-2.946 1.646c-8.817.016-15.961 7.544-15.961 16.831 0 9.296 7.158 16.833 15.988 16.833h12.693l.261-.481c-7.025-1.775-12.253-8.413-12.253-16.353z" fill="#ffb1a0"/><path d="m354.089 345.921c-2.261-.876-32.303-12.51-51.717-20.029l-3.993 1.914h-84.917l-3.602-2.066-51.671 20.181c-11.244 4.627-26.301 19.188-26.301 40.794v48.675h40.522v47.253h167.457v-47.253h40.522c0-23.588 0-44.97 0-48.675 0-18.607-11.913-34.873-26.3-40.794z" fill="#80b4fb"/><path d="m165.91 369.056c0-15.234 8.114-25.771 16.617-32.641l-24.338 9.506c-11.244 4.627-26.301 19.188-26.301 40.794v48.675h34.022c0-27.47 0-53.827 0-66.334z" fill="#61a2f9"/><path d="m172.41 434.39h-40.522v39.488c0 4.84 3.924 8.764 8.764 8.764h31.758z" fill="#ffb1a0"/><path d="m339.867 434.39v48.253h31.758c4.841 0 8.764-3.924 8.764-8.764 0-4.139 0-8.549 0-39.488h-40.522z" fill="#ffcebe"/><path d="m286.136 319.605c-1.864-.72-3.102-2.514-3.108-4.522l-.013-15.984-3.304-3.375h-47.5l-2.992 3.303v16.026c0 2.003-.963 3.183-2.072 3.936l-17.288 6.752c6.052 18.574 23.313 33.099 46.973 33.099 21.202 0 39.223-13.836 45.54-32.948-8.686-3.364-15.247-5.905-16.236-6.287z" fill="#ffcebe"/><path d="m256.116 295.723h-23.904l-2.992 3.303v16.026c0 2.003-.963 3.183-2.072 3.936l-17.288 6.752c5.991 18.385 22.967 32.794 46.256 33.086z" fill="#ffb1a0"/><path d="m302.372 218.723-3.994-2.667-3-13h-5.833l-24.333 17.667h-21.553l-1.815 2.93v35.184c0 19.569 11.71 37.834 30.762 45.392 18.717-6.539 32.185-24.362 32.185-45.28v-34.774z" fill="#ffdecf"/><g><path d="m242.562 258.949v-34.394l2.374-3.832h-35.076l-2.374 3.832v34.394c0 25.065 19.639 47.958 49.347 47.958 5.983 0 11.709-1.111 16.995-3.121-19.332-7.085-31.266-25.3-31.266-44.837z" fill="#ffcebe"/></g><path d="m301.675 161.426c-4.582.352-8.787-2.529-9.669-7.039-1.486-7.596-5.246-15.134-19.937-15.134h-50.968c-18.706 0-33.87 15.164-33.87 33.87v37.172c0 7.876 6.385 14.261 14.261 14.261h57.848c12.939 0 24.176-7.259 29.878-17.924.442-.827 1.697-.504 1.697.434 0 9.619 7.87 17.49 17.49 17.49 5.042 0 9.168-4.126 9.168-9.168v-38.79c-.001-9.139-7.974-15.781-15.898-15.172z" fill="#365e7d"/><g><path d="m215.981 210.294v-37.172c0-18.706 15.164-33.87 33.87-33.87h-28.75c-18.706 0-33.87 15.164-33.87 33.87v37.172c0 7.876 6.385 14.261 14.261 14.261h28.75c-7.876 0-14.261-6.385-14.261-14.261z" fill="#2b4d66"/></g></g><path d="m481.057 229.706c-.049-.02-.097-.039-.146-.058l-51.707-20.025c-.004-.001-.007-.003-.01-.005l-14.554-5.636-.009-10.3c11.959-9.174 20.084-23.098 21.531-38.93h5.435c12.951 0 23.488-10.916 23.488-24.333 0-10.691-6.693-19.787-15.964-23.044.032-.42.064-.84.064-1.268v-38.79c0-13.53-11.718-23.597-23.973-22.649-.756.062-1.589-.268-1.733-1-2.75-14.064-11.934-21.195-27.297-21.195h-3.879c-4.143 0-7.5 3.358-7.5 7.5s3.357 7.5 7.5 7.5h3.879c10.026 0 11.537 3.761 12.576 9.075 1.586 8.105 9.143 13.725 17.604 13.077 3.596-.284 7.822 2.96 7.822 7.693v38.791c0 1.87-2.02 1.811-3.725 1.448-.009-.002-.019-.002-.028-.004-4.626-.995-7.906-5.135-7.906-9.766 0-3.864-2.618-7.217-6.367-8.155-3.743-.937-7.627.784-9.443 4.186-4.604 8.611-13.518 13.96-23.264 13.96-62.039 0-57.961.057-58.89-.089-3.248-.504-5.719-3.316-5.719-6.672v-37.175c0-14.541 11.83-26.37 26.37-26.37h12.089c4.143 0 7.5-3.358 7.5-7.5s-3.357-7.5-7.5-7.5h-12.089c-22.812 0-41.37 18.559-41.37 41.37v37.172c0 3.277.732 6.385 2.035 9.175-6.302 4.37-10.462 11.809-10.462 20.231 0 13.417 10.537 24.333 23.488 24.333h5.438c1.416 14.767 8.953 29.267 21.488 38.893v10.132c-10.433 4.075-15.967 6.236-20.896 8.161v-35.954c0-13.573-11.739-23.584-23.973-22.65-.743.061-1.589-.267-1.733-1-2.75-14.064-11.934-21.195-27.297-21.195h-50.969c-1.488 0-2.956.083-4.403.237.012-.318.023-.636.023-.957 0-10.691-6.693-19.787-15.964-23.044.032-.42.064-.84.064-1.268v-38.79c0-13.59-11.764-23.584-23.972-22.649-.752.057-1.591-.267-1.734-1.001-2.75-14.064-11.934-21.195-27.297-21.195h-50.964c-22.812 0-41.37 18.559-41.37 41.37v37.172c0 3.277.732 6.385 2.035 9.175-6.302 4.37-10.462 11.809-10.462 20.231 0 13.417 10.537 24.333 23.488 24.333h5.438c1.416 14.767 8.953 29.268 21.489 38.894l.001 10.131-14.589 5.697c-.003.001-.005.002-.008.004l-51.663 20.177c-.042.017-.084.034-.126.051-14.905 6.131-30.947 23.684-30.947 47.727v87.164c0 8.968 7.296 16.265 16.265 16.265h108.254c-.17 1.711-.268 3.455-.268 5.239v87.164c0 8.968 7.296 16.265 16.264 16.265h97.986c4.143 0 7.5-3.358 7.5-7.5s-3.357-7.5-7.5-7.5h-58.729c0-9.653 0-73.323 0-83.776 0-4.142-3.357-7.5-7.5-7.5s-7.5 3.358-7.5 7.5v35.522h-25.521v-40.175c0-16.354 10.993-29.435 21.595-33.834 19.023-7.43 9.595-3.747 44.732-17.47 9.313 19.017 28.604 30.929 51.117 30.929 21.311 0 40.395-12.109 49.659-30.809l44.812 17.354.006.003c11.375 4.716 21.579 18.188 21.579 33.827v40.175h-25.521v-35.522c0-4.142-3.357-7.5-7.5-7.5s-7.5 3.358-7.5 7.5v83.776h-58.729c-4.143 0-7.5 3.358-7.5 7.5s3.357 7.5 7.5 7.5h97.986c8.968 0 16.264-7.296 16.264-16.265 0-8.854 0-78.469 0-87.164 0-1.756-.1-3.504-.28-5.239h108.266c8.969 0 16.265-7.296 16.265-16.265 0-8.852 0-78.426 0-87.164 0-20.604-12.726-40.231-30.945-47.729zm-202.286 62.503c-24.863 16.27-63.923 1.863-63.923-36.29v-24.476h44.354c10.491 0 20.635-4.012 28.264-11.155 2.418 3.625 5.764 6.575 9.688 8.533v27.099c-.001 14.651-4.753 27.369-18.383 36.289zm-172.655-75.801c3.47-1.738 6.216-5.775 6.216-10.636v-4.002c11.749 4.155 25.982 4.704 38.783.115.008-.003.015-.005.023-.008l.003 3.947c.015 5.134 3.117 9.646 7.9 11.495 3.792 1.468 2.466.955 9.005 3.487-6.972 12.949-20.526 21.254-35.602 21.254-16.162 0-30.05-8.208-37.077-21.412 10.897-4.256 10.158-3.944 10.749-4.24zm88.54 32.01c-4.681 0-8.488-4.186-8.488-9.332 0-.007.001-.013.001-.02.008-4.583 3.044-8.455 7.125-9.175 2.036.811 4.235 1.33 6.555 1.498v17.029zm-15.062-69.594v30.368l-13.454-5.21-.009-10.3c5.334-4.093 9.906-9.127 13.463-14.858zm137.752 69.594h-5.192v-17.436c.903-.217 2.387-.731 3.402-1.229h1.79c4.766 0 8.488 4.356 8.488 9.332 0 5.147-3.808 9.333-8.488 9.333zm36.643-31.723c3.428-1.342 6.844-5.492 6.844-10.923v-4.002c12.792 4.524 27.566 4.322 38.806.107.003 3.409-.902 12.038 7.903 15.442 2.362.914.589.228 9.005 3.487-6.972 12.948-20.526 21.253-35.601 21.253-16.162 0-30.05-8.208-37.077-21.412zm87.608-76.943h-5.192v-17.437c1.1-.265 2.533-.803 3.402-1.229h1.79c4.681 0 8.488 4.187 8.488 9.333s-3.808 9.333-8.488 9.333zm-131.179-9.333c0-4.621 3.076-8.473 7.096-9.206 2.064.825 4.283 1.341 6.585 1.509v17.029h-5.192c-4.681.001-8.489-4.186-8.489-9.332zm28.681 16.833v-24.477h44.354c10.208 0 20.458-3.84 28.262-11.156 2.419 3.625 5.765 6.576 9.689 8.534v27.098c0 26.907-19.584 42.875-40.459 42.875-22.754.001-41.846-16.188-41.846-42.874zm-67.166-1.113c10.026 0 11.537 3.761 12.576 9.073 1.584 8.106 9.15 13.729 17.604 13.078 3.595-.281 7.822 2.957 7.822 7.694v38.79c0 .971-.857 1.668-1.669 1.668l-.016-.001c-5.54-.008-9.973-4.588-9.973-9.989 0-3.862-2.616-7.215-6.363-8.154-3.718-.931-7.634.791-9.448 4.185-4.603 8.61-13.517 13.959-23.264 13.959-7.176 0-50.495 0-57.847 0-3.69 0-6.762-3.01-6.762-6.761v-37.172c0-14.541 11.829-26.37 26.37-26.37zm-78.837-6.387h-5.192v-17.437c.903-.217 2.396-.735 3.402-1.229h1.79c4.681 0 8.488 4.187 8.488 9.333s-3.808 9.333-8.488 9.333zm-122.752-75.91c0-14.541 11.829-26.37 26.37-26.37h50.968c10.027 0 11.537 3.761 12.576 9.075 1.587 8.104 9.175 13.73 17.604 13.077h.001c3.6-.284 7.822 2.964 7.822 7.693v38.79c0 .969-.855 1.668-1.668 1.668-5.579 0-9.99-4.617-9.99-9.99 0-3.864-2.618-7.217-6.367-8.155-3.722-.932-7.634.794-9.443 4.186-4.604 8.611-13.518 13.96-23.264 13.96-4.775 0-50.385 0-57.848 0-3.679 0-6.761-3.003-6.761-6.761zm-8.427 66.577c0-4.621 3.076-8.473 7.096-9.206 2.079.831 4.283 1.338 6.585 1.509v17.029h-5.192c-4.681.001-8.489-4.186-8.489-9.332zm28.681 16.852c0-.007.001-.013.001-.019v-24.477h44.354c10.789 0 20.871-4.227 28.262-11.156 2.419 3.625 5.765 6.576 9.689 8.534v29.515c0 22.512-18.388 40.458-40.459 40.458-22.55.001-41.847-16.007-41.847-42.855zm-75.598 217.327v-31.988h25.522v33.253h-24.257c-.698 0-1.265-.568-1.265-1.265zm40.522 1.265c0-9.654 0-73.323 0-83.776 0-4.142-3.357-7.5-7.5-7.5s-7.5 3.358-7.5 7.5v35.523h-25.522v-40.175c0-18.262 12.893-30.223 21.598-33.834l44.73-17.47c9.312 19.017 28.604 30.929 51.117 30.929 14.888 0 28.69-5.91 38.819-15.846 1.044 12.424 11.134 22.206 23.393 22.206h5.422c1.365 15.066 8.799 29.135 21.504 38.893v10.131c-34.217 13.364-33.994 13.277-66.26 25.878-.042.017-.084.034-.126.051-10.812 4.449-21.377 14.468-26.871 27.491h-72.804zm109.25 75.413v33.253h-24.258c-.696 0-1.264-.567-1.264-1.265v-31.989h25.522zm91.923-90.549c-16.162 0-30.05-8.208-37.077-21.412l10.12-3.953c2.634-1.026 6.844-4.746 6.844-10.922v-4.003c11.984 4.238 26.004 4.645 38.806.107.003 3.501-.869 11.798 7.617 15.318.096.04.189.086.286.123l9.005 3.487c-6.972 12.949-20.525 21.255-35.601 21.255zm116.056 122.538c0 .697-.567 1.265-1.264 1.265h-24.258v-33.253h25.521v31.988zm-13.908-133.987c-2.248-1.06 3.852 1.373-68.453-26.63l-.009-10.294c12.309-9.427 20.125-23.533 21.541-38.936h5.424c12.256 0 22.344-9.777 23.393-22.197 10.285 10.01 24.459 15.838 40.207 15.838 21.311 0 40.396-12.109 49.66-30.809l44.812 17.354c10.738 4.456 21.585 17.487 21.585 33.83v40.175h-25.523v-35.523c0-4.142-3.357-7.5-7.5-7.5s-7.5 3.358-7.5 7.5c0 10.63-.001 73.728-.001 83.776h-72.861c-4.757-11.348-13.416-21.179-24.775-26.584zm138.159 25.32c0 .697-.567 1.265-1.265 1.265h-24.257v-33.253h25.521v31.988z"/></g></svg>